<?xml version="1.0"?><svg xmlns="http://www.w3.org/2000/svg" fill='#fff' viewBox="0 50 128 75"><path d="M 33.699219 50.699219 C 20.999219 50.699219 10.699219 60.999219 10.699219 73.699219 L 10.699219 108.40039 C 9.3992187 108.70039 8.4003906 109.90078 8.4003906 111.30078 C 8.4003906 113.00078 9.7003906 114.30078 11.400391 114.30078 L 25 114.30078 C 25.3 115.60078 25.8 116.80039 26.5 117.90039 L 16.599609 117.90039 C 14.899609 117.90039 13.599609 119.20039 13.599609 120.90039 C 13.599609 122.60039 14.899609 123.90039 16.599609 123.90039 L 105.59961 123.90039 C 111.09961 123.90039 115.8 120.30039 117.5 115.40039 C 118.3 116.10039 119.39961 116.49961 120.59961 116.59961 L 120.90039 116.59961 C 123.60039 116.59961 125.79961 114.60039 126.09961 111.90039 L 126.59961 106.69922 C 126.79961 104.69922 126.90039 102.69922 126.90039 100.69922 L 126.90039 100.19922 L 126.90039 100.09961 C 127.10039 88.199609 124.50078 76.399219 119.30078 65.699219 L 118.09961 63.400391 C 114.09961 55.600391 106.20039 50.699219 97.400391 50.699219 L 33.699219 50.699219 z M 33.800781 56.599609 L 97.400391 56.599609 L 97.400391 56.699219 C 102.40039 56.699219 107.10078 58.9 110.30078 62.5 L 91.300781 62.5 C 88.500781 62.5 86.300781 64.7 86.300781 67.5 L 86.300781 69.699219 C 86.300781 72.499219 88.500781 74.699219 91.300781 74.699219 L 116.59961 74.699219 C 117.99961 78.499219 119.10078 82.500391 119.80078 86.400391 C 114.80078 81.700391 107.79922 78.599609 100.69922 78.599609 L 16.699219 78.599609 L 16.699219 74.599609 L 20.800781 74.599609 C 22.500781 74.599609 23.800781 73.299609 23.800781 71.599609 C 23.800781 69.899609 22.500781 68.599609 20.800781 68.599609 L 17.5 68.599609 C 17.7 67.899609 18.000781 67.199609 18.300781 66.599609 L 18.800781 66.599609 L 24.900391 66.599609 C 26.600391 66.599609 27.900391 65.299609 27.900391 63.599609 C 27.900391 61.899609 26.600391 60.599609 24.900391 60.599609 L 22.900391 60.599609 C 25.900391 58.099609 29.700781 56.599609 33.800781 56.599609 z M 41.300781 62.699219 C 38.500781 62.699219 36.300781 64.899219 36.300781 67.699219 L 36.300781 69.699219 C 36.300781 72.499219 38.500781 74.699219 41.300781 74.699219 L 51.300781 74.699219 C 54.100781 74.699219 56.300781 72.499219 56.300781 69.699219 L 56.300781 67.699219 C 56.300781 64.899219 54.100781 62.699219 51.300781 62.699219 L 41.300781 62.699219 z M 66.300781 62.699219 C 63.500781 62.699219 61.300781 64.899219 61.300781 67.699219 L 61.300781 69.699219 C 61.300781 72.499219 63.500781 74.699219 66.300781 74.699219 L 76.300781 74.699219 C 79.100781 74.699219 81.300781 72.499219 81.300781 69.699219 L 81.300781 67.699219 C 81.300781 64.899219 79.100781 62.699219 76.300781 62.699219 L 66.300781 62.699219 z M 16.699219 84.699219 L 100.80078 84.699219 C 110.60078 84.699219 120.3 92.300391 121 100.40039 C 121 102.30039 120.89922 104.19961 120.69922 106.09961 L 120.40039 108.90039 C 119.90039 108.60039 119.29922 108.30078 118.69922 108.30078 C 118.39922 108.30078 118.2 108.30039 118 108.40039 C 116.7 102.80039 111.69922 98.699219 105.69922 98.699219 C 99.799219 98.699219 94.8 102.80078 93.5 108.30078 L 49.5 108.30078 C 49.1 106.50078 48.299609 104.90039 47.099609 103.40039 C 46.499609 102.70039 45.700781 102.30078 44.800781 102.30078 L 29.800781 102.30078 C 28.900781 102.30078 28 102.70039 27.5 103.40039 C 26.4 104.80039 25.499609 106.50078 25.099609 108.30078 L 16.699219 108.30078 L 16.699219 84.699219 z M 105.69922 104.80078 C 109.29922 104.80078 112.30078 107.80039 112.30078 111.40039 C 112.30078 115.00039 109.29922 118 105.69922 118 C 101.99922 118 99.099609 115.00039 99.099609 111.40039 C 99.099609 107.80039 102.09922 104.80078 105.69922 104.80078 z M 31.400391 108.40039 L 43.199219 108.40039 C 43.699219 109.30039 43.900391 110.30039 43.900391 111.40039 C 43.900391 115.00039 40.900781 118 37.300781 118 C 33.600781 118 30.699219 115.00039 30.699219 111.40039 C 30.699219 110.30039 30.900391 109.30039 31.400391 108.40039 z M 49.5 114.40039 L 93.400391 114.40039 C 93.700391 115.70039 94.200391 116.9 94.900391 118 L 48 118 C 48.7 116.9 49.2 115.70039 49.5 114.40039 z M 3.6757812 118.07422 C 2.9007813 118.07422 2.1 118.35039 1.5 118.90039 C 0.9 119.50039 0.59960938 120.2 0.59960938 121 C 0.59960938 121.8 0.9 122.59961 1.5 123.09961 C 2.1 123.69961 2.7996094 124 3.5996094 124 C 4.3996094 124 5.1992187 123.69961 5.6992188 123.09961 C 6.2992187 122.49961 6.5996094 121.8 6.5996094 121 C 6.5996094 120.2 6.2992188 119.40039 5.6992188 118.90039 C 5.1992188 118.35039 4.4507813 118.07422 3.6757812 118.07422 z"/></svg>