<svg xmlns="http://www.w3.org/2000/svg" viewBox="0 0 50 50" width="512px" height="512px" fill="#fff"><path d="M 28 1 C 26.31 1 25.180859 3.5403125 24.880859 4.3203125 C 24.550859 5.1603125 24.300938 6.0995312 24.210938 7.0195312 C 23.620938 7.0395312 23.050234 7.1109375 22.490234 7.2109375 C 22.190234 6.6009375 21.810156 6.0197656 21.410156 5.5097656 C 20.950156 4.9197656 19.450703 3.1503906 17.970703 3.1503906 C 17.800703 3.1503906 17.640703 3.1707031 17.470703 3.2207031 C 15.850703 3.7107031 15.499687 6.4707812 15.429688 7.3007812 C 15.339688 8.3407812 15.399922 9.48 15.669922 10.5 L 15.669922 10.509766 C 15.169922 10.949766 14.699531 11.429453 14.269531 11.939453 C 14.109531 11.859453 13.939297 11.780938 13.779297 11.710938 C 13.009297 11.370938 10.420703 10.370313 9.2207031 11.570312 C 8.0207031 12.760312 9.029375 15.349141 9.359375 16.119141 C 9.789375 17.099141 10.390391 18.100859 11.150391 18.880859 L 11.150391 18.890625 C 11.050391 19.540625 11 20.189141 11 20.869141 C 10.74 20.919141 10.49 20.990547 10.25 21.060547 C 9.44 21.300547 6.8199219 22.210391 6.6699219 23.900391 C 6.5299219 25.580391 8.9707031 26.919062 9.7207031 27.289062 C 10.120703 27.489062 10.56 27.660547 11 27.810547 L 11 29.699219 C 10.87 29.679219 10.729609 29.660391 10.599609 29.650391 C 10.389609 29.630391 10.050391 29.609375 9.6503906 29.609375 C 8.4903906 29.609375 6.8004688 29.809453 6.2304688 30.939453 C 5.4704688 32.449453 7.2290625 34.600703 7.7890625 35.220703 C 8.1490625 35.620703 8.5602344 36.009375 8.9902344 36.359375 C 8.7102344 36.869375 8.4098438 37.359844 8.0898438 37.839844 C 7.9998438 37.799844 7.9005469 37.750937 7.8105469 37.710938 C 7.3105469 37.490938 6.0291406 36.980469 4.8691406 36.980469 C 4.2491406 36.980469 3.67 37.119297 3.25 37.529297 C 2.05 38.719297 3.029375 41.319844 3.359375 42.089844 C 3.459375 42.319844 3.5594531 42.549297 3.6894531 42.779297 C 3.1894531 43.209297 2.7207812 43.579922 2.3007812 43.919922 C 0.80078125 45.119922 -0.28070313 45.980234 0.029296875 47.240234 C 0.28929688 48.300234 1.1908594 49.359375 7.3808594 49.359375 C 9.3508594 49.359375 11.870078 49.25 15.080078 49 L 27 49 L 30.060547 49 L 45.240234 49 C 46.260234 49 47.169922 48.469844 47.669922 47.589844 C 48.169922 46.709844 48.160625 45.670547 47.640625 44.810547 C 47.090625 43.900547 46.450703 43.050781 45.720703 42.300781 C 44.690703 41.230781 43.559453 40.430078 42.439453 39.830078 C 42.799453 38.640078 43 37.370547 43 36.060547 L 43 34.830078 C 44.84 34.420078 46.760234 33.640391 46.990234 32.150391 C 47.230234 30.520391 45.37 29.069531 43 28.019531 L 43 20.880859 C 43 14.140859 38.180547 8.5097656 31.810547 7.2597656 C 31.750547 6.2597656 31.479141 5.2303125 31.119141 4.3203125 C 30.819141 3.5403125 29.69 1 28 1 z M 28 3.0292969 C 28.44 3.3192969 29.339453 4.7495313 29.689453 6.5195312 C 29.719453 6.6895312 29.749766 6.8595312 29.759766 7.0195312 C 29.549766 6.9995313 29.339141 7 29.119141 7 L 26.240234 7 C 26.250234 6.85 26.280547 6.6895313 26.310547 6.5195312 C 26.660547 4.7495313 27.56 3.3192969 28 3.0292969 z M 18.050781 5.1699219 C 18.520781 5.3099219 19.660234 6.2907031 20.490234 7.7207031 C 19.410234 8.0707031 18.389219 8.5599219 17.449219 9.1699219 C 17.439219 9.1199219 17.439687 9.06 17.429688 9 C 17.249688 7.2 17.710781 5.5699219 18.050781 5.1699219 z M 24.880859 9 L 26.470703 9 L 29.119141 9 C 29.249141 9 29.389531 8.9997656 29.519531 9.0097656 C 30.229531 9.0297656 30.919844 9.1197656 31.589844 9.2597656 C 36.959844 10.399766 41 15.180859 41 20.880859 L 41 27.259766 L 41 29.369141 L 41 36.060547 C 41 37.080547 40.859844 38.07 40.589844 39 C 40.419844 39.65 40.180859 40.279141 39.880859 40.869141 C 38.190859 44.309141 34.729219 46.750469 30.699219 46.980469 C 30.691219 46.980469 30.682828 46.979469 30.673828 46.980469 C 29.989828 45.212469 29.010797 43.633734 27.716797 42.302734 C 23.913797 38.390734 18.951141 38.009 16.994141 38 C 16.441141 38.003 15.997 38.453859 16 39.005859 C 16.003 39.556859 16.45 40 17 40 L 17.005859 40 C 18.734859 40.021 23.015203 40.333266 26.283203 43.697266 C 27.216203 44.657266 27.970156 45.765 28.535156 47 L 27 47 L 14.919922 47 C 13.459922 47.12 12.16 47.2 11 47.25 C 4.36 47.58 2.5603125 47.039531 2.0703125 46.769531 C 2.3303125 46.459531 3.0007813 45.920469 3.5507812 45.480469 C 3.9207813 45.180469 4.3295312 44.850469 4.7695312 44.480469 C 5.2395312 44.080469 5.7495313 43.640859 6.2695312 43.130859 C 6.4195313 42.990859 6.5609375 42.849219 6.7109375 42.699219 C 7.3909375 42.009219 8.030625 41.289531 8.640625 40.519531 C 9.040625 39.989531 9.4307812 39.450859 9.8007812 38.880859 C 10.110781 38.420859 10.409922 37.939453 10.669922 37.439453 C 10.789922 37.249453 10.9 37.059141 11 36.869141 C 11.297 36.305141 11.513609 35.861922 11.599609 35.669922 C 11.622609 35.618922 11.94475 34.89125 12.21875 34.03125 C 12.72175 32.45025 12.926 30.836156 13 30.160156 L 13 28.25 L 13 26.240234 L 13 22.630859 L 13 20.880859 C 13 20.800859 12.999766 20.710859 13.009766 20.630859 C 13.009766 20.470859 13.009297 20.319922 13.029297 20.169922 C 13.059297 19.459922 13.170078 18.769609 13.330078 18.099609 C 13.630078 16.849609 14.119297 15.679141 14.779297 14.619141 C 15.139297 14.049141 15.540469 13.509766 15.980469 13.009766 C 16.170469 12.799766 16.360547 12.600391 16.560547 12.400391 C 17.040547 11.930391 17.559141 11.499141 18.119141 11.119141 C 19.059141 10.459141 20.110703 9.9403125 21.220703 9.5703125 C 21.850703 9.3703125 22.499922 9.2208594 23.169922 9.1308594 C 23.549922 9.0708594 23.940078 9.0295312 24.330078 9.0195312 C 24.510078 8.9995312 24.700859 9 24.880859 9 z M 11.042969 12.994141 C 11.5225 13.035391 12.270078 13.222344 13.080078 13.589844 C 12.530078 14.459844 12.09 15.390859 11.75 16.380859 C 10.87 14.960859 10.560156 13.49 10.660156 13 C 10.752656 12.9825 10.883125 12.980391 11.042969 12.994141 z M 23 16 A 2 2 0 0 0 23 20 A 2 2 0 0 0 23 16 z M 37 16 A 2 2 0 0 0 37 20 A 2 2 0 0 0 37 16 z M 25.992188 21.994141 A 1.0001 1.0001 0 0 0 25.529297 23.882812 C 26.275196 24.280925 27.864336 25 30 25 C 32.135664 25 33.724804 24.280924 34.470703 23.882812 A 1.0004591 1.0004591 0 1 0 33.529297 22.117188 C 32.941196 22.431076 31.686336 23 30 23 C 28.313664 23 27.058804 22.431076 26.470703 22.117188 A 1.0001 1.0001 0 0 0 25.992188 21.994141 z M 11 22.929688 L 11 25.669922 C 9.78 25.149922 8.8992187 24.430312 8.6992188 24.070312 C 8.9392188 23.760313 9.82 23.249688 11 22.929688 z M 20.921875 27.001953 C 20.792656 27.011641 20.661563 27.046875 20.539062 27.109375 C 20.049063 27.369375 19.859375 27.970937 20.109375 28.460938 C 21.749375 31.610937 21.72 33.830625 21.5 34.140625 C 21.05 34.260625 18.970781 33.310391 16.800781 30.400391 C 16.470781 29.960391 15.850391 29.869219 15.400391 30.199219 C 15.060391 30.459219 14.929063 30.889297 15.039062 31.279297 C 15.079062 31.389297 15.129219 31.499609 15.199219 31.599609 C 15.459219 31.949609 15.729766 32.289141 16.009766 32.619141 C 17.739766 34.619141 19.819688 36.150391 21.429688 36.150391 C 21.829687 36.150391 22.209062 36.049844 22.539062 35.839844 C 24.349062 34.689844 23.580625 30.789062 21.890625 27.539062 C 21.695625 27.171563 21.309531 26.972891 20.921875 27.001953 z M 43 30.230469 C 44.42 30.970469 44.989531 31.630078 45.019531 31.830078 C 44.929531 32.030078 44.27 32.429531 43 32.769531 L 43 30.230469 z M 10.115234 31.59375 C 10.408609 31.61 10.669625 31.646 10.890625 31.6875 L 10.890625 31.796875 C 10.802625 32.218875 10.678047 32.694078 10.498047 33.205078 C 10.320047 33.712078 10.122687 34.157062 9.9296875 34.539062 C 8.7796875 33.509062 8.0890625 32.319609 8.0390625 31.849609 C 8.3460625 31.754609 8.7175313 31.666141 9.1445312 31.619141 C 9.4960312 31.580641 9.8218594 31.5775 10.115234 31.59375 z M 5.03125 38.974609 C 5.4671875 39.011172 6.1383594 39.175234 6.8808594 39.490234 C 6.3908594 40.120234 5.8490625 40.719062 5.2890625 41.289062 L 5.2207031 41.359375 C 4.7607031 40.299375 4.5996875 39.350469 4.6796875 38.980469 C 4.7671875 38.965469 4.8859375 38.962422 5.03125 38.974609 z M 41.699219 41.720703 C 42.589219 42.220703 43.469297 42.869219 44.279297 43.699219 C 44.909297 44.339219 45.459922 45.059844 45.919922 45.839844 C 46.129922 46.179844 45.999687 46.479609 45.929688 46.599609 C 45.859687 46.719609 45.660234 47 45.240234 47 L 36.970703 47 C 39.000703 45.72 40.639219 43.890703 41.699219 41.720703 z"/></svg>