<svg xmlns="http://www.w3.org/2000/svg" viewBox="0 0 50 50" width="512px" height="512px" fill="#fff"><path d="M 9.7890625 2 C 8.8775546 2 8.1119135 2.579187 7.640625 3.2734375 C 7.1693365 3.967688 6.868764 4.8187119 6.6347656 5.7910156 C 6.230904 7.4691303 6.1296152 9.5795579 6.0878906 11.658203 C 5.9118248 11.561947 5.7909513 11.417281 5.6054688 11.337891 C 4.8059332 10.995671 3.7738634 10.752365 2.8925781 11.408203 C 2.5066451 11.695179 2.1611219 12.210056 2.0488281 12.847656 C 1.9365344 13.485256 2.0149761 14.22712 2.3066406 15.158203 L 2.3066406 15.160156 C 2.7004929 16.409231 3.4216594 17.782759 4.3476562 19.119141 C 4.8996392 19.915444 5.5657129 20.625244 6.2695312 21.226562 C 6.1608772 21.72401 6.0433114 22.436457 6 23.425781 L 6 23.447266 L 6 23.560547 C 6 23.85581 6.0346936 24.061525 6.0410156 24.181641 L 6.0429688 24.195312 L 6.0429688 24.208984 C 6.0555737 24.366547 6.0702344 24.612717 6.0996094 24.869141 C 6.0996094 25.12977 6.1499854 25.237801 6.1464844 25.199219 C 6.541725 27.811551 7.8494393 30.117826 9.8261719 31.966797 L 12.271484 34.685547 C 13.695484 36.197547 14.676422 43.538 14.982422 48 L 16.988281 48 C 16.889075 46.527873 16.307785 38.92809 14.740234 35.068359 C 17.420686 36.199935 20.58611 36.863478 24.105469 36.96875 C 24.401801 36.978976 25.060547 37 25.060547 37 L 25.078125 37 L 25.095703 37 C 28.835168 36.979371 32.215251 36.352258 35.064453 35.197266 C 33.706064 37.970476 33.416124 42.16151 33.042969 47.558594 L 33.011719 48 L 35.015625 48 L 35.037109 47.695312 C 35.473109 41.398313 35.786516 36.848203 37.728516 34.783203 L 40.298828 31.962891 L 40.267578 31.933594 C 42.220947 30.075403 43.513293 27.754523 43.880859 25.097656 L 43.890625 25.03125 C 43.890625 25.03125 43.890625 25.029297 43.890625 25.029297 L 43.890625 25.027344 L 43.890625 24.960938 C 43.890625 25.274271 43.900391 25.253727 43.900391 24.900391 C 43.931551 24.620193 43.943501 24.356541 43.957031 24.173828 L 43.957031 24.164062 L 43.958984 24.15625 C 43.964769 24.050109 44 23.851658 44 23.560547 L 44 23.470703 C 44 22.467111 43.870145 21.733034 43.742188 21.214844 C 44.441183 20.622363 45.10346 19.915419 45.652344 19.119141 L 45.654297 19.117188 C 46.579506 17.781551 47.29974 16.408493 47.693359 15.160156 L 47.693359 15.158203 C 47.985024 14.22712 48.063466 13.485256 47.951172 12.847656 C 47.838878 12.210056 47.493355 11.695179 47.107422 11.408203 C 46.226137 10.752363 45.194067 10.995669 44.394531 11.337891 C 44.209049 11.417281 44.088175 11.561947 43.912109 11.658203 C 43.870338 9.5796499 43.769096 7.4691303 43.365234 5.7910156 C 43.131236 4.8187119 42.830664 3.967688 42.359375 3.2734375 C 41.888086 2.579187 41.122445 2 40.210938 2 C 39.569462 2 39.06351 2.4010902 38.765625 2.7949219 C 38.46774 3.1887535 38.276036 3.6327251 38.107422 4.1269531 C 37.770194 5.1154091 37.555291 6.3177424 37.394531 7.5234375 C 37.233772 8.7291326 37.136312 9.9295341 37.078125 10.847656 C 37.062952 11.08709 37.057121 11.241382 37.046875 11.4375 C 33.712051 8.8015176 29.484345 7 25 7 C 20.515655 7 16.287949 8.8015176 12.953125 11.4375 C 12.942881 11.241382 12.937053 11.08709 12.921875 10.847656 C 12.863693 9.9295341 12.766228 8.7291326 12.605469 7.5234375 C 12.444709 6.3177424 12.229806 5.1154091 11.892578 4.1269531 C 11.723964 3.6327251 11.53226 3.1887535 11.234375 2.7949219 C 10.93649 2.4010902 10.430538 2 9.7890625 2 z M 9.6796875 4.0878906 C 9.7667885 4.2208739 9.8838881 4.4368708 9.9980469 4.7714844 C 10.255194 5.5252159 10.471306 6.6510076 10.623047 7.7890625 C 10.774788 8.9271174 10.869594 10.086091 10.925781 10.972656 C 10.953871 11.415939 10.972975 11.792176 10.984375 12.0625 C 10.995783 12.332824 11 12.565417 11 12.5 L 11 13.171875 C 9.2101205 14.968696 7.8063605 17.007228 6.9453125 19.125 C 6.597863 18.76902 6.2713992 18.383266 5.9921875 17.980469 C 5.158754 16.777673 4.5212354 15.531186 4.2148438 14.560547 C 3.9865083 13.83163 3.984325 13.395212 4.0195312 13.195312 C 4.0547372 12.995413 4.0818705 13.014743 4.0859375 13.011719 L 4.0878906 13.011719 C 4.0666056 13.027559 4.3153948 12.960499 4.8183594 13.175781 C 5.3213239 13.391062 5.9235883 13.811679 6.3164062 14.179688 L 8 15.757812 L 8 12.589844 C 8 10.278573 8.178075 7.9301581 8.5800781 6.2597656 C 8.7810797 5.4245694 9.0462104 4.7628589 9.2949219 4.3964844 C 9.4885504 4.1112521 9.5760328 4.1099274 9.6796875 4.0878906 z M 40.320312 4.0878906 C 40.423968 4.1099276 40.51145 4.1112526 40.705078 4.3964844 C 40.95379 4.7628589 41.21892 5.4245694 41.419922 6.2597656 C 41.821925 7.9301581 42 10.278573 42 12.589844 L 42 15.757812 L 43.683594 14.179688 C 44.076412 13.811678 44.678676 13.391062 45.181641 13.175781 C 45.684605 12.960501 45.933395 13.027559 45.912109 13.011719 L 45.914062 13.011719 C 45.918163 13.014719 45.945259 12.99541 45.980469 13.195312 C 46.015679 13.395212 46.013489 13.83163 45.785156 14.560547 C 45.478765 15.531186 44.841246 16.777673 44.007812 17.980469 L 44.007812 17.982422 L 44.005859 17.982422 C 43.702577 18.422671 43.282473 18.744738 42.900391 19.123047 C 42.047788 17.027568 40.767304 15.00706 39 13.230469 L 39 12.5 C 39 12.56542 39.004195 12.332824 39.015625 12.0625 C 39.027025 11.792176 39.046129 11.415939 39.074219 10.972656 C 39.130409 10.086091 39.225212 8.9271174 39.376953 7.7890625 C 39.528694 6.6510076 39.744806 5.5252159 40.001953 4.7714844 C 40.116112 4.4368708 40.233211 4.2208739 40.320312 4.0878906 z M 25 9 C 29.624211 9 34.108879 11.217226 37.306641 14.300781 C 39.445898 16.354468 40.987119 18.79522 41.636719 21.119141 L 41.863281 21.931641 C 41.933592 22.292401 42 22.787401 42 23.470703 L 42 23.560547 C 42 23.629437 41.975027 23.791189 41.960938 24.044922 C 41.938988 24.351388 41.935639 24.59514 41.912109 24.748047 L 41.900391 24.824219 L 41.900391 24.900391 C 41.900391 24.861561 41.898701 24.87428 41.898438 24.845703 L 41.898438 24.833984 C 41.896727 24.688609 41.894437 24.701685 41.892578 24.867188 C 41.464689 27.855365 39.688365 30.313653 36.791016 32.103516 C 33.880641 33.901423 29.836879 34.972592 25.091797 35 C 25.053107 34.9988 24.448733 34.980183 24.173828 34.970703 L 24.171875 34.970703 L 24.169922 34.970703 C 19.617384 34.835096 15.774243 33.706663 13.005859 31.917969 C 10.237476 30.129275 8.5431638 27.72467 8.1191406 24.882812 L 8.1152344 24.857422 L 8.1113281 24.833984 C 8.0909027 24.731857 8.0907048 24.720343 8.09375 24.748047 L 8.0859375 24.705078 C 8.0653485 24.581545 8.0607095 24.361929 8.0390625 24.078125 L 8.0371094 24.050781 C 8.0231274 23.813328 8 23.640808 8 23.560547 L 8 23.513672 C 8.071239 21.886417 8.3417969 21.154297 8.3417969 21.154297 L 8.3535156 21.125 L 8.3613281 21.09375 C 9.0203259 18.778111 10.560884 16.357097 12.693359 14.300781 C 15.891121 11.217226 20.375789 9 25 9 z M 25 15 A 2 2 0 0 0 23 17 A 2 2 0 0 0 25 19 A 2 2 0 0 0 27 17 A 2 2 0 0 0 25 15 z M 17 19 C 15.343 19 14 20.343 14 22 C 14 23.657 15.343 25 17 25 C 18.657 25 20 23.657 20 22 C 20 20.343 18.657 19 17 19 z M 33 19 C 31.343 19 30 20.343 30 22 C 30 23.657 31.343 25 33 25 C 34.657 25 36 23.657 36 22 C 36 20.343 34.657 19 33 19 z M 16 20 C 16.552 20 17 20.448 17 21 C 17 21.552 16.552 22 16 22 C 15.448 22 15 21.552 15 21 C 15 20.448 15.448 20 16 20 z M 32 20 C 32.552 20 33 20.448 33 21 C 33 21.552 32.552 22 32 22 C 31.448 22 31 21.552 31 21 C 31 20.448 31.448 20 32 20 z M 24.0625 25.001953 C 23.013105 24.999953 22.044516 24.991553 21.15625 25.113281 C 20.267388 25.235092 19.394963 25.494756 18.753906 26.175781 C 18.25022 26.710948 18.001366 27.447251 18 28.1875 L 18 28.189453 C 18 29.637301 18.840839 30.895573 20.037109 31.71875 C 21.233379 32.54188 22.805969 33 24.539062 33 L 25.462891 33 C 27.195543 33 28.766923 32.542028 29.962891 31.71875 C 31.158858 30.895472 31.999402 29.635592 31.998047 28.1875 C 31.996647 27.446021 31.745411 26.712004 31.244141 26.177734 L 31.244141 26.175781 C 30.603329 25.494184 29.730779 25.235089 28.841797 25.113281 C 27.953411 24.991555 26.984943 24.999947 25.935547 25.001953 L 25.933594 25.001953 L 24.064453 25.001953 L 24.0625 25.001953 z M 24.060547 27.001953 L 24.0625 27.001953 L 25.935547 27.001953 L 25.9375 27.001953 C 26.988292 26.999953 27.899295 27.001805 28.570312 27.09375 C 29.240385 27.18556 29.608676 27.359779 29.785156 27.546875 C 29.921177 27.692273 29.997417 27.849819 29.998047 28.191406 C 29.998011 28.87961 29.623435 29.524791 28.828125 30.072266 C 28.032045 30.620234 26.836238 31 25.462891 31 L 24.539062 31 C 23.165158 31 21.968355 30.620339 21.171875 30.072266 C 20.375395 29.524192 20 28.878605 20 28.189453 C 20.001 27.847667 20.075 27.691312 20.210938 27.546875 C 20.387881 27.3589 20.756847 27.185689 21.427734 27.09375 C 22.098622 27.00181 23.009755 26.999953 24.060547 27.001953 z M 25 40 C 21.564 40 19.063 42.774 19 48 L 21.001953 48 C 21.057953 43.996 22.755 42 25 42 C 27.245 42 28.942047 43.996 28.998047 48 L 31 48 C 30.937 42.774 28.436 40 25 40 z"/></svg>